
nColumns=19
nRows=56
DataType=double
version=3
OpenSimVersion=4.4-2022-10-11-798caa840
endheader
time	ground_force_calcn_r_vx	ground_force_calcn_r_vy	ground_force_calcn_r_vz	ground_force_calcn_r_px	ground_force_calcn_r_py	ground_force_calcn_r_pz	ground_force_calcn_r_mx	ground_force_calcn_r_my	ground_force_calcn_r_mz	ground_force_calcn_l_vx	ground_force_calcn_l_vy	ground_force_calcn_l_vz	ground_force_calcn_l_px	ground_force_calcn_l_py	ground_force_calcn_l_pz	ground_force_calcn_l_mx	ground_force_calcn_l_my	ground_force_calcn_l_mz
0	21.9249	297.967	8.19787	-0.308688	0	-0.463787	0.461646	6.27393	0.172613	-6.8178	628.98	66.8639	-0.218325	0	-0.881143	-0.00945681	0.872444	0.09274540000000001
0.01	22.3882	298.497	8.13889	-0.308309	0	-0.463673	0.473453	6.31245	0.172117	-6.2036	627.918	66.3272	-0.218772	0	-0.881076	-0.008913219999999999	0.902182	0.0952978
0.02	22.8241	299.904	7.74031	-0.307478	0	-0.463359	0.48125	6.32351	0.163205	-5.56183	626.125	65.636	-0.219204	0	-0.880996	-0.008325269999999999	0.937221	0.0982478
0.03	23.1869	302.411	6.91368	-0.306093	0	-0.462803	0.482924	6.29847	0.143995	-4.92481	623.463	64.77889999999999	-0.2196	0	-0.880903	-0.00771646	0.976876	0.101499
0.04	23.4225	306.217	5.58708	-0.304077	0	-0.461979	0.476553	6.23029	0.113675	-4.33077	619.8150000000001	63.752	-0.219937	0	-0.8808	-0.00712729	1.02005	0.104919
0.05	23.4736	311.468	3.71172	-0.301392	0	-0.460881	0.460796	6.11424	0.0728625	-3.82056	615.099	62.5594	-0.220194	0	-0.8806890000000001	-0.00661737	1.06538	0.108355
0.06	23.2847	318.242	1.26562	-0.298052	0	-0.45952	0.435217	5.9483	0.0236558	-3.43355	609.265	61.2149	-0.220351	0	-0.880576	-0.00626278	1.1113	0.111656
0.07000000000000001	22.8111	326.538	-1.74363	-0.294123	0	-0.457927	0.400517	5.73335	-0.0306146	-3.20358	602.301	59.7407	-0.220391	0	-0.880463	-0.00614906	1.15608	0.114668
0.08	22.0296	336.269	-5.27547	-0.289723	0	-0.456149	0.358553	5.47311	-0.0858635	-3.15467	594.225	58.1645	-0.220302	0	-0.8803569999999999	-0.00635974	1.19794	0.117258
0.09	20.9491	347.261	-9.25479	-0.285007	0	-0.454248	0.312107	5.17362	-0.137881	-3.29802	585.087	56.5157	-0.220075	0	-0.880262	-0.00696326	1.23532	0.119324
0.1	19.6195	359.259	-13.5772	-0.280154	0	-0.452287	0.264411	4.84172	-0.182979	-3.63002	574.966	54.823	-0.219708	0	-0.880182	-0.00799888	1.26696	0.120804
0.11	18.1314	371.951	-18.1211	-0.27535	0	-0.450331	0.218552	4.4834	-0.218427	-4.13164	563.974	53.111	-0.219206	0	-0.880118	-0.009466260000000001	1.29216	0.121686
0.12	16.5921	385.033	-22.7606	-0.270748	0	-0.448435	0.176822	4.1033	-0.24256	-4.7715	552.259	51.4002	-0.218582	0	-0.880068	-0.0113267	1.31097	0.122015
0.13	15.0874	398.236	-27.375	-0.266466	0	-0.446646	0.140351	3.70461	-0.254657	-5.51099	540.009	49.7081	-0.217855	0	-0.880032	-0.0135125	1.32406	0.12188
0.14	13.6762	411.319	-31.8542	-0.262579	0	-0.444999	0.109362	3.28912	-0.254723	-6.30764	527.434	48.0512	-0.21705	0	-0.880003	-0.015935	1.33246	0.121392
0.15	12.3996	424.06	-36.0993	-0.259127	0	-0.44352	0.0835702	2.85806	-0.2433	-7.11744	514.751	46.4452	-0.2162	0	-0.879979	-0.0184907	1.33729	0.120662
0.16	11.2831	436.262	-40.0249	-0.256124	0	-0.442224	0.0624119	2.41317	-0.221396	-7.89688	502.171	44.9028	-0.21534	0	-0.879953	-0.021068	1.33973	0.119796
0.17	10.3378	447.759	-43.5638	-0.253559	0	-0.441119	0.0451923	1.95741	-0.190443	-8.60496	489.884	43.4331	-0.214505	0	-0.87992	-0.0235532	1.34089	0.118884
0.18	9.561500000000001	458.422	-46.6714	-0.251411	0	-0.440207	0.0311851	1.49516	-0.15222	-9.20478	478.067	42.0415	-0.213736	0	-0.879874	-0.0258355	1.34181	0.118
0.19	8.941700000000001	468.17	-49.3255	-0.249645	0	-0.439482	0.0197075	1.03184	-0.108713	-9.6654	466.875	40.7311	-0.213071	0	-0.879807	-0.0278119	1.34342	0.117203
0.2	8.458159999999999	476.963	-51.525	-0.248222	0	-0.438936	0.0101688	0.57343	-0.0619461	-9.963419999999999	456.449	39.5052	-0.212547	0	-0.879715	-0.0293928	1.34656	0.116543
0.21	8.086180000000001	484.8	-53.2872	-0.2471	0	-0.438558	0.00209516	0.125613	-0.0138069	-10.084	446.909	38.3697	-0.212199	0	-0.879593	-0.0305047	1.35193	0.116071
0.22	7.79967	491.706	-54.6436	-0.246237	0	-0.438332	-0.00486785	-0.306878	0.0341036	-10.0215	438.362	37.3347	-0.21205	0	-0.87944	-0.0310889	1.3599	0.11582
0.23	7.57246	497.719	-55.6358	-0.24559	0	-0.438243	-0.0109632	-0.720584	0.0805481	-9.779260000000001	430.904	36.4141	-0.212117	0	-0.879255	-0.0311004	1.37038	0.115806
0.24	7.37886	502.884	-56.3099	-0.245118	0	-0.438272	-0.0163365	-1.11336	0.124668	-9.36891	424.616	35.6249	-0.212406	0	-0.879042	-0.030514	1.38295	0.116028
0.25	7.19465	507.245	-56.7113	-0.244781	0	-0.438401	-0.0210498	-1.48407	0.165923	-8.80951	419.566	34.9858	-0.212911	0	-0.8788049999999999	-0.0293325	1.397	0.11649
0.26	6.99848	510.839	-56.8805	-0.24454	0	-0.438614	-0.0251014	-1.83222	0.204013	-8.125959999999999	415.796	34.5157	-0.21361	0	-0.8785539999999999	-0.0275979	1.41215	0.117224
0.27	6.77256	513.692	-56.8499	-0.244355	0	-0.438892	-0.0284479	-2.15774	0.238796	-7.34731	413.326	34.2326	-0.214474	0	-0.8783	-0.0253882	1.42822	0.118289
0.28	6.50229	515.8150000000001	-56.6417	-0.244186	0	-0.439221	-0.0310231	-2.46101	0.270244	-6.50471	412.155	34.1507	-0.215466	0	-0.878049	-0.0228092	1.44525	0.119752
0.29	6.17565	517.191	-56.2671	-0.243994	0	-0.439583	-0.0327556	-2.74318	0.298441	-5.6291	412.26	34.2784	-0.216547	0	-0.877816	-0.0199844	1.46361	0.121695
0.3	5.78238	517.7670000000001	-55.7265	-0.243738	0	-0.439963	-0.0335772	-3.00658	0.323593	-4.74853	413.613	34.6168	-0.217674	0	-0.877605	-0.0170381	1.48407	0.124208
0.31	5.31243	517.431	-55.0081	-0.243376	0	-0.440346	-0.0334166	-3.25478	0.346015	-3.88532	416.18	35.16	-0.218817	0	-0.877422	-0.0140748	1.50764	0.127369
0.32	4.75468	516.016	-54.0872	-0.242868	0	-0.440723	-0.0321811	-3.49255	0.366078	-3.05374	419.941	35.8977	-0.219951	0	-0.877267	-0.0111648	1.53535	0.131246
0.33	4.09557	513.302	-52.9235	-0.242171	0	-0.441086	-0.0297253	-3.7255	0.384114	-2.26092	424.896	36.8183	-0.221063	0	-0.877139	-0.0083453	1.56834	0.1359
0.34	3.3189	509.05	-51.4617	-0.241245	0	-0.441433	-0.0258153	-3.95954	0.400284	-1.51094	431.059	37.9115	-0.222145	0	-0.877035	-0.00563524	1.60768	0.141395
0.35	2.40527	503.031	-49.6373	-0.240051	0	-0.441763	-0.0200837	-4.20024	0.414465	-0.8061739999999999	438.441	39.1683	-0.223193	0	-0.876949	-0.00304165	1.65421	0.14778
0.36	1.33158	495.045	-47.3866	-0.238545	0	-0.44208	-0.0119751	-4.45203	0.426156	-0.14768	447.025	40.577	-0.224206	0	-0.876878	-0.000564351	1.70828	0.155063
0.37	0.0711439	484.946	-44.6586	-0.236685	0	-0.442383	-0.000692077	-4.71748	0.434432	0.464152	456.752	42.1218	-0.225181	0	-0.876814	0.0017982	1.76954	0.163187
0.38	-1.40496	472.654	-41.4264	-0.234426	0	-0.442672	0.0148528	-4.99676	0.437947	1.02907	467.513	43.7816	-0.226116	0	-0.876749	0.00404342	1.83696	0.172027
0.39	-3.12405	458.168	-37.6973	-0.231725	0	-0.442939	0.0360515	-5.28726	0.435027	1.54649	479.145	45.5318	-0.227004	0	-0.876679	0.0061611	1.90887	0.181395
0.4	-5.10373	441.57	-33.5184	-0.228544	0	-0.44317	0.0645357	-5.58357	0.423833	2.01607	491.449	47.3478	-0.227842	0	-0.8766	0.00813494	1.98301	0.19105
0.41	-7.34443	423.034	-28.9744	-0.224843	0	-0.443349	0.102053	-5.87819	0.402608	2.43811	504.198	49.2075	-0.228622	0	-0.876508	0.00994544	2.05671	0.200725
0.42	-9.828659999999999	402.81	-24.1811	-0.22059	0	-0.443451	0.150365	-6.16243	0.369937	2.81388	517.145	51.0929	-0.229338	0	-0.876404	0.0115742	2.12716	0.210159
0.43	-12.5236	381.227	-19.2764	-0.215757	0	-0.443447	0.211135	-6.42708	0.324981	3.14633	530.005	52.9865	-0.229979	0	-0.876292	0.0130098	2.19153	0.219095
0.44	-15.3814	358.688	-14.4105	-0.210325	0	-0.44331	0.285718	-6.66284	0.267683	3.44026	542.444	54.868	-0.230536	0	-0.876173	0.0142507	2.24699	0.227282
0.45	-18.3366	335.677	-9.73151	-0.204299	0	-0.443012	0.374756	-6.86043	0.198889	3.70061	554.072	56.7093	-0.231002	0	-0.8760520000000001	0.0153008	2.29091	0.234474
0.46	-21.3034	312.754	-5.37119	-0.197722	0	-0.442538	0.477504	-7.01022	0.120392	3.92999	564.433	58.4706	-0.231368	0	-0.875934	0.0161604	2.32099	0.240436
0.47	-24.1751	290.545	-1.43652	-0.190712	0	-0.441893	0.590886	-7.10148	0.0351112	4.12602	573.008	60.0979	-0.231621	0	-0.87582	0.0168151	2.33522	0.244922
0.48	-26.828	269.722	1.99241	-0.183499	0	-0.441118	0.708357	-7.12164	-0.0526068	4.27822	579.234	61.5217	-0.231751	0	-0.875717	0.0172224	2.33176	0.247662
0.49	-29.124	250.99	4.86248	-0.176485	0	-0.440314	0.818779	-7.05622	-0.136702	4.36504	582.518	62.6583	-0.23174	0	-0.875625	0.0173021	2.30898	0.248364
0.5	-30.9108	235.062	7.14431	-0.170267	0	-0.439656	0.905945	-6.88927	-0.209388	4.35211	582.282	63.4148	-0.231573	0	-0.875549	0.0169341	2.26566	0.246747
0.51	-32.0219	222.616	8.818339999999999	-0.165626	0	-0.439387	0.949882	-6.60359	-0.261583	4.19176	578	63.6973	-0.231225	0	-0.875491	0.0159625	2.20106	0.242563
0.52	-32.2904	214.262	9.855320000000001	-0.163409	0	-0.439767	0.931597	-6.18158	-0.284332	3.82483	569.266	63.422	-0.230668	0	-0.875454	0.0142088	2.11476	0.235606
0.53	-31.5814	210.51	10.207	-0.164309	0	-0.440971	0.8414160000000001	-5.60857	-0.271944	3.18665	555.869	62.5296	-0.229868	0	-0.875441	0.0115042	2.00675	0.225739
0.54	-29.8139	211.749	9.80491	-0.1686	0	-0.442983	0.686799	-4.87788	-0.225868	2.21731	537.865	60.9971	-0.228786	0	-0.875457	0.00773928	1.87736	0.212904
0.55	-26.9628	218.211	8.564909999999999	-0.175977	0	-0.445565	0.493905	-3.99719	-0.156892	0.874838	515.617	58.8463	-0.227381	0	-0.875505	0.00293137	1.72771	0.19718
